<svg width="40" height="40" viewBox="0 0 40 40" fill="none" xmlns="http://www.w3.org/2000/svg">
<path fill-rule="evenodd" clip-rule="evenodd" d="M10 7.5C7.51472 7.5 5.5 9.51472 5.5 12V30C5.5 32.4853 7.51472 34.5 10 34.5H28C30.4853 34.5 32.5 32.4853 32.5 30V20C32.5 19.1716 33.1716 18.5 34 18.5C34.8284 18.5 35.5 19.1716 35.5 20V30C35.5 34.1421 32.1421 37.5 28 37.5H10C5.85786 37.5 2.5 34.1421 2.5 30V12C2.5 7.85786 5.85786 4.5 10 4.5H20C20.8284 4.5 21.5 5.17157 21.5 6C21.5 6.82843 20.8284 7.5 20 7.5H10Z" fill="white"/>
<path fill-rule="evenodd" clip-rule="evenodd" d="M28.4269 4.05669C30.5025 1.9811 33.8677 1.9811 35.9433 4.05669C38.0189 6.13228 38.0189 9.49747 35.9433 11.5731L22.4557 25.0607C22.1744 25.342 21.7929 25.5 21.395 25.5H16C15.1716 25.5 14.5 24.8284 14.5 24V18.605C14.5 18.2071 14.658 17.8256 14.9393 17.5443L28.4269 4.05669ZM33.822 6.17801C32.918 5.274 31.4523 5.274 30.5483 6.17801L29.2486 7.47768L32.5223 10.7514L33.822 9.45173C34.726 8.54772 34.726 7.08202 33.822 6.17801ZM30.401 12.8727L27.1273 9.599L17.5 19.2263V22.5H20.7737L30.401 12.8727Z" fill="white"/>
</svg>
