<svg width="353" height="109" viewBox="0 0 353 109" fill="none" xmlns="http://www.w3.org/2000/svg">
<path d="M83 32L76 38L75 79L79 85L89 86L96 81V37L93 33L83 32Z" fill="#EBAD2E"/>
<path d="M298 26L293 32L297 72L309 82L332 83L324 91L302 89L297 101L307 109H332L351 90L353 30L346 25L334 29L333 57L321 64L313 56L312 29L298 26Z" fill="#EBAD2E"/>
<path d="M221 26L204 42L201 55L204 71L220 85H246L255 76L251 66L231 68L222 63L249 58L255 51V37L250 30L239 25L221 26Z" fill="#EBAD2E"/>
<path d="M239 45V46L237 48H236L235 49H232L231 50H227L226 49H223L222 48V47L226 43H227L228 42H230L231 41L236 42L239 45Z" fill="white"/>
<path d="M107 30L109 84L126 81L127 49L133 44L141 51L144 84L161 81L167 45L174 49L176 82L188 86L195 80V42L186 28L170 25L157 33L137 25L126 32L114 25L107 30Z" fill="#EBAD2E"/>
<path d="M8 5L2 9L0 19L8 27L23 28L24 79L29 85H41L47 75V28L66 25L69 12L62 5H8Z" fill="#EBAD2E"/>
<path d="M273 2L266 4L263 9V77L269 85L281 86L288 80V73L283 64V7L273 2Z" fill="#EBAD2E"/>
<path d="M81 1L75 6L74 17L78 22L82 24L92 23L98 16L99 13L98 7L96 4L88 0L81 1Z" fill="#EBAD2E"/>
</svg>
