<svg width="16" height="16" viewBox="0 0 16 16" fill="none" xmlns="http://www.w3.org/2000/svg">
<path d="M8 8C9.89375 8 11.4286 6.4332 11.4286 4.5C11.4286 2.5668 9.89375 1 8 1C6.10625 1 4.57143 2.5668 4.57143 4.5C4.57143 6.4332 6.10625 8 8 8ZM10.5661 8.89141L9.28571 14.125L8.42857 10.4062L9.28571 8.875H6.71429L7.57143 10.4062L6.71429 14.125L5.43393 8.89141C3.52411 8.98438 2 10.5785 2 12.55V13.6875C2 14.4121 2.57589 15 3.28571 15H12.7143C13.4241 15 14 14.4121 14 13.6875V12.55C14 10.5785 12.4759 8.98438 10.5661 8.89141Z" fill="black"/>
</svg>
